<svg xmlns="http://www.w3.org/2000/svg" viewBox="0 0 42.001 42.002">
  <defs>
    <style>
      .cls-1 {
        fill: none;
        stroke: #1e1e1e;
        stroke-linecap: round;
        stroke-linejoin: round;
        stroke-miterlimit: 10;
        stroke-width: 2px;
      }
    </style>
  </defs>
  <g id="axor_feedback" transform="translate(1 1)">
    <path id="Shape" class="cls-1" d="M20,0A20,20,0,1,1,0,20,20,20,0,0,1,20,0Z"/>
    <g id="_1753223071056" transform="translate(24 8)">
      <path id="Shape-2" data-name="Shape" class="cls-1" d="M0,6.156,6.156,0" transform="translate(0.781 0.697)"/>
      <path id="Shape-3" data-name="Shape" class="cls-1" d="M5.117,5.118H0V0" transform="translate(0.423 2.093)"/>
    </g>
    <path id="Shape-4" data-name="Shape" class="cls-1" d="M2.094,0H13.27a2.1,2.1,0,0,1,2.094,2.094V8.378a2.1,2.1,0,0,1-2.094,2.095h-.61V14.38L8.753,10.473H2.094A2.1,2.1,0,0,1,0,8.378V2.094A2.1,2.1,0,0,1,2.094,0Z" transform="translate(7.821 18.382)"/>
  </g>
</svg>
