<svg xmlns="http://www.w3.org/2000/svg" viewBox="0 0 27 22">
  <defs>
    <style>
      .cls-1 {
        fill: none;
        stroke: #d84137;
        stroke-linecap: round;
        stroke-linejoin: round;
        stroke-miterlimit: 10;
        stroke-width: 2px;
      }

      .cls-2 {
        fill: #fff;
      }
    </style>
  </defs>
  <g id="Basket_icon" data-name="Basket icon" transform="translate(1 1)">
    <path id="Stroke_1" data-name="Stroke 1" class="cls-1" d="M6.627,14h0l.329-9.934,0,0L0,0H5.027L6.953,4.063v0H25V9.8a2.162,2.162,0,0,1-1.551,2.263L6.627,14Z"/>
    <path id="Fill_3" data-name="Fill 3" class="cls-2" d="M2.388,4.667A2.344,2.344,0,0,0,4.73,2.333,2.375,2.375,0,0,0,2.388,0,2.384,2.384,0,0,0,0,2.333,2.354,2.354,0,0,0,2.388,4.667" transform="translate(6.081 15.333)"/>
    <path id="Stroke_5" data-name="Stroke 5" class="cls-1" d="M2.388,4.667A2.344,2.344,0,0,0,4.73,2.333,2.375,2.375,0,0,0,2.388,0,2.384,2.384,0,0,0,0,2.333,2.354,2.354,0,0,0,2.388,4.667Z" transform="translate(6.081 15.333)"/>
    <path id="Fill_7" data-name="Fill 7" class="cls-2" d="M2.365,4.667A2.326,2.326,0,0,0,4.73,2.333a2.365,2.365,0,0,0-4.73,0A2.327,2.327,0,0,0,2.365,4.667" transform="translate(18.919 15.333)"/>
    <path id="Stroke_9" data-name="Stroke 9" class="cls-1" d="M2.365,4.667A2.326,2.326,0,0,0,4.73,2.333a2.365,2.365,0,0,0-4.73,0A2.327,2.327,0,0,0,2.365,4.667Z" transform="translate(18.919 13.333)"/>
  </g>
</svg>
