<svg xmlns="http://www.w3.org/2000/svg" viewBox="0 0 19.42 19.42">
  <defs>
    <style>
      .cls-1 {
        fill: none;
        stroke: #d84137;
        stroke-linecap: round;
        stroke-linejoin: round;
        stroke-miterlimit: 10;
        stroke-width: 2px;
      }
    </style>
  </defs>
  <g id="Group_3" data-name="Group 3" transform="translate(-205 -17.994)">
    <g id="Group_11" data-name="Group 11" transform="translate(206 19)">
      <g id="Group_2" data-name="Group 2">
        <path id="Stroke_6" data-name="Stroke 6" class="cls-1" d="M16.074,16.074c-3.258-.416-7.093-2.414-10.377-5.7S.416,3.258,0,0" transform="translate(0 1.34)"/>
      </g>
      <path id="Stroke_7" data-name="Stroke 7" class="cls-1" d="M0,1.34,2.8.085A.97.97,0,0,1,4.075.571L5.711,4.215a.971.971,0,0,1-.486,1.279" transform="translate(0 0)"/>
      <path id="Stroke_8" data-name="Stroke 8" class="cls-1" d="M4.154,5.8,5.41,3a.97.97,0,0,0-.486-1.279L1.279.085A.97.97,0,0,0,0,.571" transform="translate(11.92 11.618)"/>
    </g>
  </g>
</svg>
