<svg xmlns="http://www.w3.org/2000/svg" viewBox="0 0 20.667 24.998">
  <defs>
    <style>
      .cls-1 {
        fill: none;
        stroke: #d5433d;
        stroke-linecap: round;
        stroke-linejoin: round;
        stroke-miterlimit: 10;
        stroke-width: 1.5px;
      }
    </style>
  </defs>
  <g id="Group_16" data-name="Group 16" transform="translate(0.75 0.75)">
    <path id="Stroke_4" data-name="Stroke 4" class="cls-1" d="M9.584,0a9.66,9.66,0,0,1,9.584,9.733c0,5.7-5.814,9.936-9.584,13.765C5.814,19.669,0,15.433,0,9.733A9.66,9.66,0,0,1,9.584,0Z"/>
    <path id="Stroke_5" data-name="Stroke 5" class="cls-1" d="M3.75,0A3.779,3.779,0,0,1,7.5,3.808,3.779,3.779,0,0,1,3.75,7.616,3.779,3.779,0,0,1,0,3.808,3.779,3.779,0,0,1,3.75,0Z" transform="translate(5.834 5.925)"/>
  </g>
</svg>
