<svg xmlns="http://www.w3.org/2000/svg" viewBox="0 0 30 30">
  <defs>
    <style>
      .cls-1 {
        fill: #dcdcdc;
      }

      .cls-2, .cls-4 {
        fill: none;
      }

      .cls-2 {
        stroke: #e6e6e6;
        stroke-miterlimit: 10;
        stroke-width: 2px;
      }

      .cls-3 {
        stroke: none;
      }
    </style>
  </defs>
  <g id="Group_6" data-name="Group 6" transform="translate(-80)">
    <path id="Shape" class="cls-1" d="M4.644,12a8.563,8.563,0,0,0,8.621-8.621c0-.131,0-.262-.009-.392a6.165,6.165,0,0,0,1.512-1.568,6.048,6.048,0,0,1-1.74.477A3.04,3.04,0,0,0,14.36.22a6.072,6.072,0,0,1-1.924.735A3.033,3.033,0,0,0,7.272,3.719,8.6,8.6,0,0,1,1.028.553,3.032,3.032,0,0,0,1.966,4.6,3.007,3.007,0,0,1,.591,4.218v.038a3.031,3.031,0,0,0,2.431,2.97,3.025,3.025,0,0,1-1.368.052,3.033,3.033,0,0,0,2.831,2.1,6.08,6.08,0,0,1-3.763,1.3A6.168,6.168,0,0,1,0,10.639,8.578,8.578,0,0,0,4.644,12" transform="translate(88 9)"/>
    <g id="Oval_3" data-name="Oval 3" class="cls-2" transform="translate(80)">
      <circle class="cls-3" cx="15" cy="15" r="15"/>
      <circle class="cls-4" cx="15" cy="15" r="14"/>
    </g>
  </g>
</svg>
