<svg id="Group_3" data-name="Group 3" xmlns="http://www.w3.org/2000/svg" viewBox="0 0 19.415 19.414">
  <defs>
    <style>
      .cls-1 {
        fill: #d5433d;
      }
    </style>
  </defs>
  <path id="Fill_1" data-name="Fill 1" class="cls-1" d="M9.707,19.415A9.707,9.707,0,0,1,2.843,2.844,9.707,9.707,0,1,1,16.571,16.571,9.647,9.647,0,0,1,9.707,19.415Zm0-17.8A8.092,8.092,0,0,0,3.985,15.43,8.092,8.092,0,0,0,15.428,3.985,8.034,8.034,0,0,0,9.707,1.616ZM7.392,14.123a.8.8,0,0,1-.7-.4.865.865,0,0,1-.111-.4V6.1a.808.808,0,0,1,1.277-.659l6.188,3.572a.807.807,0,0,1,0,1.395L7.793,14.016A.808.808,0,0,1,7.392,14.123ZM8.2,7.491v4.432l1.916-1.106,1.922-1.11Z"/>
</svg>
