<svg xmlns="http://www.w3.org/2000/svg" viewBox="0 0 30 30">
  <defs>
    <style>
      .cls-1 {
        fill: #dcdcdc;
      }

      .cls-2, .cls-4 {
        fill: none;
      }

      .cls-2 {
        stroke: #e6e6e6;
        stroke-miterlimit: 10;
        stroke-width: 2px;
      }

      .cls-3 {
        stroke: none;
      }
    </style>
  </defs>
  <g id="Group_5" data-name="Group 5" transform="translate(-40)">
    <path id="Fill_7" data-name="Fill 7" class="cls-1" d="M14.656.6c.1-.348,0-.6-.5-.6H12.519A.709.709,0,0,0,11.8.464,13.725,13.725,0,0,1,9.788,3.819c-.382.382-.556.5-.765.5-.1,0-.255-.122-.255-.469V.6c0-.417-.121-.6-.469-.6H5.72A.4.4,0,0,0,5.3.377c0,.4.591.487.652,1.6V4.393c0,.53-.1.626-.3.626-.556,0-1.91-2.043-2.712-4.381C2.781.184,2.623,0,2.2,0H.563C.094,0,0,.221,0,.464,0,.9.556,3.055,2.59,5.906a6.394,6.394,0,0,0,5.005,3c1.043,0,1.172-.234,1.172-.638V6.8c0-.469.1-.562.429-.562.243,0,.661.122,1.634,1.06,1.113,1.113,1.3,1.612,1.922,1.612h1.641c.469,0,.7-.234.568-.7a7.044,7.044,0,0,0-1.384-1.923c-.382-.452-.956-.939-1.13-1.182-.243-.313-.174-.452,0-.73A20.548,20.548,0,0,0,14.656.6" transform="translate(48 11)"/>
    <g id="Oval_3" data-name="Oval 3" class="cls-2" transform="translate(40)">
      <circle class="cls-3" cx="15" cy="15" r="15"/>
      <circle class="cls-4" cx="15" cy="15" r="14"/>
    </g>
  </g>
</svg>
