<svg xmlns="http://www.w3.org/2000/svg" viewBox="0 0 42 42">
  <defs>
    <style>
      .cls-1 {
        fill: none;
        stroke: #b3b3b3;
        stroke-linecap: round;
        stroke-linejoin: round;
        stroke-miterlimit: 10;
        stroke-width: 2px;
      }
    </style>
  </defs>
  <g id="Page_1" data-name="Page 1" transform="translate(1 1)">
    <path id="Stroke_1" data-name="Stroke 1" class="cls-1" d="M20,0A20,20,0,1,1,0,20,19.983,19.983,0,0,1,20,0Z" transform="translate(0 0)"/>
    <path id="Stroke_3" data-name="Stroke 3" class="cls-1" d="M31.342,0H28.2L26.465,5.974a3.355,3.355,0,0,1-3.441,2.193H8.317a3.353,3.353,0,0,1-3.44-2.193L3.137,0H0" transform="translate(4.273 19.357)"/>
    <path id="Stroke_5" data-name="Stroke 5" class="cls-1" d="M0,0H31.342" transform="translate(4.273 16.446)"/>
    <path id="Stroke_7" data-name="Stroke 7" class="cls-1" d="M0,0V1.928" transform="translate(11.229 27.448)"/>
    <path id="Stroke_9" data-name="Stroke 9" class="cls-1" d="M0,0V1.928" transform="translate(28.658 27.448)"/>
    <path id="Stroke_11" data-name="Stroke 11" class="cls-1" d="M0,0H7.372" transform="translate(30.775 11.569)"/>
    <path id="Stroke_13" data-name="Stroke 13" class="cls-1" d="M0,2.155V0" transform="translate(30.775 11.569)"/>
  </g>
</svg>
